<?xml version="1.0" encoding="UTF-8" standalone="no" ?>
<!DOCTYPE svg PUBLIC "-//W3C//DTD SVG 1.1//EN" "http://www.w3.org/Graphics/SVG/1.1/DTD/svg11.dtd">
<svg xmlns="http://www.w3.org/2000/svg" xmlns:xlink="http://www.w3.org/1999/xlink" version="1.1" width="1000" height="1000" viewBox="0 0 640 640" xml:space="preserve">
<desc>Created with Fabric.js 5.3.0</desc>
<defs>
</defs>
<g transform="matrix(1 0 0 1 319.6701058919 320.2843179085)" id="QW1DrVUxML_F_1c0nP5zM"  >
<g style=""   >
		<g transform="matrix(1.4583785193 0 0 1.4583785193 0 0)" id="WXzyxa0483HY0BMskZQG8"  >
<path style="stroke: rgb(212,122,95); stroke-width: 20; stroke-dasharray: none; stroke-linecap: butt; stroke-dashoffset: 0; stroke-linejoin: miter; stroke-miterlimit: 4; fill: none; fill-rule: nonzero; opacity: 1;"  transform=" translate(0, 0)" d="M 0 -207.69404 C 114.64711 -207.69404 207.69404 -114.64711 207.69404 0 C 207.69404 114.64711 114.64711 207.69404 0 207.69404 C -114.64711 207.69404 -207.69404 114.64711 -207.69404 0 C -207.69404 -114.64711 -114.64711 -207.69404 0 -207.69404 z" stroke-linecap="round" />
</g>
		<g transform="matrix(1 0 0 1 0.157480315 -253.7682789652)" id="hyhcDjbt1dogo3nJnxhHA"  >
<path style="stroke: rgb(0,0,0); stroke-width: 1; stroke-dasharray: none; stroke-linecap: butt; stroke-dashoffset: 0; stroke-linejoin: miter; stroke-miterlimit: 4; fill: rgb(255,255,255); fill-opacity: 0; fill-rule: nonzero; opacity: 1;"  transform=" translate(0, 0)" d="M 0 0" stroke-linecap="round" />
</g>
		<g transform="matrix(0.5 0 0 1 0.157480315 -255.2080989877)" id="Aom7ph_OJIUzDHKi-EeBP"  >
<path style="stroke: rgb(0,0,0); stroke-width: 1; stroke-dasharray: none; stroke-linecap: butt; stroke-dashoffset: 0; stroke-linejoin: miter; stroke-miterlimit: 4; fill: rgb(255,255,255); fill-opacity: 0; fill-rule: nonzero; opacity: 1;"  transform=" translate(0, 0)" d="M 0 0 z" stroke-linecap="round" />
</g>
		<g transform="matrix(0.5 0 0 1 0.407480315 -213.4533183353)" id="okLF00E9RTBG9qn_IqzdA"  >
<path style="stroke: rgb(0,0,0); stroke-width: 1; stroke-dasharray: none; stroke-linecap: butt; stroke-dashoffset: 0; stroke-linejoin: miter; stroke-miterlimit: 4; fill: rgb(255,255,255); fill-opacity: 0; fill-rule: nonzero; opacity: 1;"  transform=" translate(0, 0)" d="M 0 0 z" stroke-linecap="round" />
</g>
		<g transform="matrix(1 0 0 1 0.157480315 -211.2935883015)" id="3qw-HaVEyGMxEgMAc34VQ"  >
<path style="stroke: rgb(0,0,0); stroke-width: 1; stroke-dasharray: none; stroke-linecap: butt; stroke-dashoffset: 0; stroke-linejoin: miter; stroke-miterlimit: 4; fill: rgb(255,255,255); fill-opacity: 0; fill-rule: nonzero; opacity: 1;"  transform=" translate(0, 0)" d="M 0 0" stroke-linecap="round" />
</g>
		<g transform="matrix(0.999390827 0.0348994967 -0.0442495846 1.2671423135 1.589721222 -237.2176841362)" id="8pVdxubSnkl0li90SftlV"  >
<path style="stroke: rgb(212,122,95); stroke-width: 12; stroke-dasharray: none; stroke-linecap: butt; stroke-dashoffset: 0; stroke-linejoin: miter; stroke-miterlimit: 4; fill: rgb(255,255,255); fill-opacity: 0; fill-rule: nonzero; opacity: 1;"  transform=" translate(0, 0)" d="M 0 -21.23735 L 0 21.237340000000003" stroke-linecap="round" />
</g>
		<g transform="matrix(0.9659258263 0.2588190451 -0.5003717499 1.8674127932 33.3481589039 -173.2431695589)" id="8_v6FqFFR87ISpe8_lSIw"  >
<path style="stroke: rgb(212,122,95); stroke-width: 12; stroke-dasharray: none; stroke-linecap: butt; stroke-dashoffset: 0; stroke-linejoin: miter; stroke-miterlimit: 4; fill: rgb(255,255,255); fill-opacity: 0; fill-rule: nonzero; opacity: 1;"  transform=" translate(0, 0)" d="M 0 -21.23735 L 0 21.237340000000003" stroke-linecap="round" />
</g>
		<g transform="matrix(-0.999390827 -0.0348994967 -0.1172566278 3.3577904922 104.7627647015 -167.0913588453)" id="ET0Wtar84v_haoPcsEZDJ"  >
<path style="stroke: rgb(212,122,95); stroke-width: 12; stroke-dasharray: none; stroke-linecap: butt; stroke-dashoffset: 0; stroke-linejoin: miter; stroke-miterlimit: 4; fill: rgb(255,255,255); fill-opacity: 0; fill-rule: nonzero; opacity: 1;"  transform=" translate(0, 0)" d="M 0 -21.23735 L 0 21.237340000000003" stroke-linecap="round" />
</g>
		<g transform="matrix(1.080817721 0.0188657435 -0.0185077157 1.0603063234 54.0304278649 -245.3668487564)" id="-A9osYp4-FlREnft4A5c_"  >
<path style="stroke: rgb(212,122,95); stroke-width: 12; stroke-dasharray: none; stroke-linecap: butt; stroke-dashoffset: 0; stroke-linejoin: miter; stroke-miterlimit: 4; fill: rgb(255,255,255); fill-opacity: 0; fill-rule: nonzero; opacity: 1;"  transform=" translate(0, 0)" d="M -52.29471 -11.69027 C 3.1383599999999987 -13.85 52.29471999999999 11.81929 52.29471999999999 11.81929" stroke-linecap="round" />
</g>
		<g transform="matrix(1.0016637208 0.0349788679 -0.0298618268 0.8551308356 21.9952074597 -211.6604847117)" id="v-HxWe8YeLF6M7OunpFNs"  >
<path style="stroke: rgb(212,122,95); stroke-width: 12; stroke-dasharray: none; stroke-linecap: butt; stroke-dashoffset: 0; stroke-linejoin: miter; stroke-miterlimit: 4; fill: rgb(255,255,255); fill-opacity: 0; fill-rule: nonzero; opacity: 1;"  transform=" translate(0, 0)" d="M -26.37795 -2.96443 C -7.66029 -5.84407 26.37796 3.51476 26.37796 3.51476" stroke-linecap="round" />
</g>
		<g transform="matrix(0.6946583705 0.7193398003 -0.935280195 0.9031895856 166.1577647415 -168.9270032386)" id="BVvHpCrGmkvGTPpp1X4xw"  >
<path style="stroke: rgb(212,122,95); stroke-width: 12; stroke-dasharray: none; stroke-linecap: butt; stroke-dashoffset: 0; stroke-linejoin: miter; stroke-miterlimit: 4; fill: rgb(255,255,255); fill-opacity: 0; fill-rule: nonzero; opacity: 1;"  transform=" translate(0, 0)" d="M 0 -21.23735 L 0 21.237340000000003" stroke-linecap="round" />
</g>
		<g transform="matrix(0.5150380749 0.8571673007 -1.5037972358 0.903572538 143.6006537231 -100.1546643894)" id="h3FDM-mPjKXZZwShlNqQp"  >
<path style="stroke: rgb(212,122,95); stroke-width: 12; stroke-dasharray: none; stroke-linecap: butt; stroke-dashoffset: 0; stroke-linejoin: miter; stroke-miterlimit: 4; fill: rgb(255,255,255); fill-opacity: 0; fill-rule: nonzero; opacity: 1;"  transform=" translate(0, 0.000005)" d="M 0 -21.23735 L 0 21.237340000000003" stroke-linecap="round" />
</g>
		<g transform="matrix(-0.6946583705 -0.7193398003 -2.3954487092 2.3132579291 190.7652723492 -45.9479111185)" id="WI0LSmKEJVXL1iAE4ujhe"  >
<path style="stroke: rgb(212,122,95); stroke-width: 12; stroke-dasharray: none; stroke-linecap: butt; stroke-dashoffset: 0; stroke-linejoin: miter; stroke-miterlimit: 4; fill: rgb(255,255,255); fill-opacity: 0; fill-rule: nonzero; opacity: 1;"  transform=" translate(0, 0)" d="M 0 -21.23735 L 0 21.237340000000003" stroke-linecap="round" />
</g>
		<g transform="matrix(0.7510980165 0.7510980165 -0.7420461452 0.7420461452 210.2687540332 -137.2989111406)" id="n9P1ZE_vVEsKN2haFrg1V"  >
<path style="stroke: rgb(212,122,95); stroke-width: 12; stroke-dasharray: none; stroke-linecap: butt; stroke-dashoffset: 0; stroke-linejoin: miter; stroke-miterlimit: 4; fill: rgb(255,255,255); fill-opacity: 0; fill-rule: nonzero; opacity: 1;"  transform=" translate(0, 0)" d="M -52.29471 -11.69027 C 3.1383599999999987 -13.85 52.29471999999999 11.81929 52.29471999999999 11.81929" stroke-linecap="round" />
</g>
		<g transform="matrix(0.6500207741 0.6731162162 -0.6155045933 0.5943858766 164.6860705467 -134.0835187371)" id="bE0uUp96TjEIBzaBfCzen"  >
<path style="stroke: rgb(212,122,95); stroke-width: 12; stroke-dasharray: none; stroke-linecap: butt; stroke-dashoffset: 0; stroke-linejoin: miter; stroke-miterlimit: 4; fill: rgb(255,255,255); fill-opacity: 0; fill-rule: nonzero; opacity: 1;"  transform=" translate(0, 0)" d="M -26.37795 -2.96443 C -7.66029 -5.84407 26.37796 3.51476 26.37796 3.51476" stroke-linecap="round" />
</g>
		<g transform="matrix(0 1 -1.2819030313 0 237.5703037121 -4.1327572)" id="_hWyhMy-IAf7JYI-doeRG"  >
<path style="stroke: rgb(212,122,95); stroke-width: 12; stroke-dasharray: none; stroke-linecap: butt; stroke-dashoffset: 0; stroke-linejoin: miter; stroke-miterlimit: 4; fill: rgb(255,255,255); fill-opacity: 0; fill-rule: nonzero; opacity: 1;"  transform=" translate(0, 0)" d="M 0 -21.23735 L 0 21.237340000000003" stroke-linecap="round" />
</g>
		<g transform="matrix(-0.2249510543 0.9743700648 -1.8078268997 -0.4173697262 176.4016325896 30.2872719164)" id="7vI5AC4AEl1s-FzSgDxnw"  >
<path style="stroke: rgb(212,122,95); stroke-width: 12; stroke-dasharray: none; stroke-linecap: butt; stroke-dashoffset: 0; stroke-linejoin: miter; stroke-miterlimit: 4; fill: rgb(255,255,255); fill-opacity: 0; fill-rule: nonzero; opacity: 1;"  transform=" translate(0, 0)" d="M 0 -21.23735 L 0 21.237340000000003" stroke-linecap="round" />
</g>
		<g transform="matrix(0 -1 -3.335056083 0 170.1293059516 101.4248095073)" id="QJfmkVNyMmhH0xYAi8Gvu"  >
<path style="stroke: rgb(212,122,95); stroke-width: 12; stroke-dasharray: none; stroke-linecap: butt; stroke-dashoffset: 0; stroke-linejoin: miter; stroke-miterlimit: 4; fill: rgb(255,255,255); fill-opacity: 0; fill-rule: nonzero; opacity: 1;"  transform=" translate(0, 0)" d="M 0 -21.23735 L 0 21.237340000000003" stroke-linecap="round" />
</g>
		<g transform="matrix(0.01853909 1.0621037526 -1.0492518919 0.0183147599 247.4807987794 49.2637184883)" id="656MDe2QmJ846RaVUcgEL"  >
<path style="stroke: rgb(212,122,95); stroke-width: 12; stroke-dasharray: none; stroke-linecap: butt; stroke-dashoffset: 0; stroke-linejoin: miter; stroke-miterlimit: 4; fill: rgb(255,255,255); fill-opacity: 0; fill-rule: nonzero; opacity: 1;"  transform=" translate(0, 0)" d="M -52.29471 -11.69027 C 3.1383599999999987 -13.85 52.29471999999999 11.81929 52.29471999999999 11.81929" stroke-linecap="round" />
</g>
		<g transform="matrix(0 1.0005558644 -0.8556520757 0 212.4577076413 17.6377952755)" id="4If-QrqCPyxdcRfYTc0bS"  >
<path style="stroke: rgb(212,122,95); stroke-width: 12; stroke-dasharray: none; stroke-linecap: butt; stroke-dashoffset: 0; stroke-linejoin: miter; stroke-miterlimit: 4; fill: rgb(255,255,255); fill-opacity: 0; fill-rule: nonzero; opacity: 1;"  transform=" translate(0, 0)" d="M -26.37795 -2.96443 C -7.66029 -5.84407 26.37796 3.51476 26.37796 3.51476" stroke-linecap="round" />
</g>
		<g transform="matrix(-0.7071067812 0.7071067812 -0.8432114924 -0.8432114924 174.3720321734 162.472018488)" id="rW3gJUpNuhSEAZ9wXCMHE"  >
<path style="stroke: rgb(212,122,95); stroke-width: 12; stroke-dasharray: none; stroke-linecap: butt; stroke-dashoffset: 0; stroke-linejoin: miter; stroke-miterlimit: 4; fill: rgb(255,255,255); fill-opacity: 0; fill-rule: nonzero; opacity: 1;"  transform=" translate(0, 0)" d="M 0 -21.23735 L 0 21.237340000000003" stroke-linecap="round" />
</g>
		<g transform="matrix(-0.8480480962 0.5299192642 -0.9296798001 -1.487798685 106.4340858762 142.3361798972)" id="vDNCZihcL5frHGdtOWr38"  >
<path style="stroke: rgb(212,122,95); stroke-width: 12; stroke-dasharray: none; stroke-linecap: butt; stroke-dashoffset: 0; stroke-linejoin: miter; stroke-miterlimit: 4; fill: rgb(255,255,255); fill-opacity: 0; fill-rule: nonzero; opacity: 1;"  transform=" translate(0, 0.000005)" d="M 0 -21.23735 L 0 21.237340000000003" stroke-linecap="round" />
</g>
		<g transform="matrix(0.7071067812 -0.7071067812 -2.3583944952 -2.3583944952 53.1590273178 190.5399560809)" id="yRzwCNTXDE8yJ01UbKRCW"  >
<path style="stroke: rgb(212,122,95); stroke-width: 12; stroke-dasharray: none; stroke-linecap: butt; stroke-dashoffset: 0; stroke-linejoin: miter; stroke-miterlimit: 4; fill: rgb(255,255,255); fill-opacity: 0; fill-rule: nonzero; opacity: 1;"  transform=" translate(0, 0)" d="M 0 -21.23735 L 0 21.237340000000003" stroke-linecap="round" />
</g>
		<g transform="matrix(-0.7511129745 0.7778002542 -0.7548836189 -0.728982637 146.5446625502 206.4731460037)" id="sidzxxhzyN7ykym1sOAck"  >
<path style="stroke: rgb(212,122,95); stroke-width: 12; stroke-dasharray: none; stroke-linecap: butt; stroke-dashoffset: 0; stroke-linejoin: miter; stroke-miterlimit: 4; fill: rgb(255,255,255); fill-opacity: 0; fill-rule: nonzero; opacity: 1;"  transform=" translate(0, 0)" d="M -52.29471 -11.69027 C 3.1383599999999987 -13.85 52.29471999999999 11.81929 52.29471999999999 11.81929" stroke-linecap="round" />
</g>
		<g transform="matrix(-0.7172101782 0.7172101782 -0.6050373851 -0.6050373851 142.4424860755 161.1095230374)" id="ByWHIwGkRGLTp-y7VOe4C"  >
<path style="stroke: rgb(212,122,95); stroke-width: 12; stroke-dasharray: none; stroke-linecap: butt; stroke-dashoffset: 0; stroke-linejoin: miter; stroke-miterlimit: 4; fill: rgb(255,255,255); fill-opacity: 0; fill-rule: nonzero; opacity: 1;"  transform=" translate(0, 0)" d="M -26.37795 -2.96443 C -7.66029 -5.84407 26.37796 3.51476 26.37796 3.51476" stroke-linecap="round" />
</g>
		<g transform="matrix(-1 0 0 -1.2819030313 7.9256513949 239.0101237345)" id="2eCfTMAhjOSU3cHOaqqha"  >
<path style="stroke: rgb(212,122,95); stroke-width: 12; stroke-dasharray: none; stroke-linecap: butt; stroke-dashoffset: 0; stroke-linejoin: miter; stroke-miterlimit: 4; fill: rgb(255,255,255); fill-opacity: 0; fill-rule: nonzero; opacity: 1;"  transform=" translate(0, 0)" d="M 0 -21.23735 L 0 21.237340000000003" stroke-linecap="round" />
</g>
		<g transform="matrix(-0.9743700648 -0.2249510543 0.4182224307 -1.8115203687 -26.517603128 177.9305818721)" id="7ldsAjOqVpTRQDkAIajk_"  >
<path style="stroke: rgb(212,122,95); stroke-width: 12; stroke-dasharray: none; stroke-linecap: butt; stroke-dashoffset: 0; stroke-linejoin: miter; stroke-miterlimit: 4; fill: rgb(255,255,255); fill-opacity: 0; fill-rule: nonzero; opacity: 1;"  transform=" translate(0, 0)" d="M 0 -21.23735 L 0 21.237340000000003" stroke-linecap="round" />
</g>
		<g transform="matrix(1 0 0 -3.3175083365 -97.6319153124 171.0797009211)" id="7PoKD6YfzcguQfWPglHBG"  >
<path style="stroke: rgb(212,122,95); stroke-width: 12; stroke-dasharray: none; stroke-linecap: butt; stroke-dashoffset: 0; stroke-linejoin: miter; stroke-miterlimit: 4; fill: rgb(255,255,255); fill-opacity: 0; fill-rule: nonzero; opacity: 1;"  transform=" translate(0, 0)" d="M 0 -21.23735 L 0 21.237340000000003" stroke-linecap="round" />
</g>
		<g transform="matrix(-1.0579136766 0.0184659519 -0.0183147599 -1.0492518919 -45.2265650056 248.9048842119)" id="izx8c9j4gp-Eie6Kp5jpf"  >
<path style="stroke: rgb(212,122,95); stroke-width: 12; stroke-dasharray: none; stroke-linecap: butt; stroke-dashoffset: 0; stroke-linejoin: miter; stroke-miterlimit: 4; fill: rgb(255,255,255); fill-opacity: 0; fill-rule: nonzero; opacity: 1;"  transform=" translate(0, 0)" d="M -52.29471 -11.69027 C 3.1383599999999987 -13.85 52.29471999999999 11.81929 52.29471999999999 11.81929" stroke-linecap="round" />
</g>
		<g transform="matrix(-0.8865196474 0 0 -0.8556520757 -12.5057160074 213.8860566355)" id="olNjGCrFDGpiz7SjWVuLj"  >
<path style="stroke: rgb(212,122,95); stroke-width: 12; stroke-dasharray: none; stroke-linecap: butt; stroke-dashoffset: 0; stroke-linejoin: miter; stroke-miterlimit: 4; fill: rgb(255,255,255); fill-opacity: 0; fill-rule: nonzero; opacity: 1;"  transform=" translate(0, 0)" d="M -26.37795 -2.96443 C -7.66029 -5.84407 26.37796 3.51476 26.37796 3.51476" stroke-linecap="round" />
</g>
		<g transform="matrix(-0.7193398003 -0.6946583705 0.8781586189 -0.9093598702 -158.9840791592 178.3652140532)" id="oJvYMSk9hyb5j6ma_2TxG"  >
<path style="stroke: rgb(212,122,95); stroke-width: 12; stroke-dasharray: none; stroke-linecap: butt; stroke-dashoffset: 0; stroke-linejoin: miter; stroke-miterlimit: 4; fill: rgb(255,255,255); fill-opacity: 0; fill-rule: nonzero; opacity: 1;"  transform=" translate(0, 0)" d="M 0 -21.23735 L 0 21.237340000000003" stroke-linecap="round" />
</g>
		<g transform="matrix(-0.544639035 -0.8386705679 1.5504062917 -1.0068456184 -141.2164355717 110.4760860028)" id="Lmc-BDsmkXB5vmOalKOlj"  >
<path style="stroke: rgb(212,122,95); stroke-width: 12; stroke-dasharray: none; stroke-linecap: butt; stroke-dashoffset: 0; stroke-linejoin: miter; stroke-miterlimit: 4; fill: rgb(255,255,255); fill-opacity: 0; fill-rule: nonzero; opacity: 1;"  transform=" translate(0, 0)" d="M 0 -21.23735 L 0 21.237340000000003" stroke-linecap="round" />
</g>
		<g transform="matrix(0.7193398003 0.6946583705 2.3145189269 -2.3967545106 -188.1250904866 56.5855291967)" id="EDfSH6P_jqw8dBpX0JltU"  >
<path style="stroke: rgb(212,122,95); stroke-width: 12; stroke-dasharray: none; stroke-linecap: butt; stroke-dashoffset: 0; stroke-linejoin: miter; stroke-miterlimit: 4; fill: rgb(255,255,255); fill-opacity: 0; fill-rule: nonzero; opacity: 1;"  transform=" translate(0, 0)" d="M 0 -21.23735 L 0 21.237340000000003" stroke-linecap="round" />
</g>
		<g transform="matrix(-0.7674911477 -0.7156970737 0.7156970737 -0.7674911477 -203.8484705726 149.0349149653)" id="LEB_055augrjTf2SwvTur"  >
<path style="stroke: rgb(212,122,95); stroke-width: 12; stroke-dasharray: none; stroke-linecap: butt; stroke-dashoffset: 0; stroke-linejoin: miter; stroke-miterlimit: 4; fill: rgb(255,255,255); fill-opacity: 0; fill-rule: nonzero; opacity: 1;"  transform=" translate(-0.000005, 0.0000013722)" d="M -52.29471 -11.69027 C 3.1383599999999987 -13.85 52.29471999999999 11.81929 52.29471999999999 11.81929" stroke-linecap="round" />
</g>
		<g transform="matrix(-0.6639369424 -0.6411564525 0.5943858766 -0.6155045933 -155.5050717765 147.0499459005)" id="Ha6VuwOchO400rRZdcGNE"  >
<path style="stroke: rgb(212,122,95); stroke-width: 12; stroke-dasharray: none; stroke-linecap: butt; stroke-dashoffset: 0; stroke-linejoin: miter; stroke-miterlimit: 4; fill: rgb(255,255,255); fill-opacity: 0; fill-rule: nonzero; opacity: 1;"  transform=" translate(0, 0)" d="M -26.37795 -2.96443 C -7.66029 -5.84407 26.37796 3.51476 26.37796 3.51476" stroke-linecap="round" />
</g>
		<g transform="matrix(0 -1 1.2951185265 0 -235.7705286839 7.4309766208)" id="h_sSeOUyG1QiO-zoXC6OQ"  >
<path style="stroke: rgb(212,122,95); stroke-width: 12; stroke-dasharray: none; stroke-linecap: butt; stroke-dashoffset: 0; stroke-linejoin: miter; stroke-miterlimit: 4; fill: rgb(255,255,255); fill-opacity: 0; fill-rule: nonzero; opacity: 1;"  transform=" translate(0, 0)" d="M 0 -21.23735 L 0 21.237340000000003" stroke-linecap="round" />
</g>
		<g transform="matrix(0.2249510543 -0.9743700648 1.8123714526 0.4184189189 -174.9214725338 -27.0176297187)" id="4haN30wd4YJ8J8fSS-qGY"  >
<path style="stroke: rgb(212,122,95); stroke-width: 12; stroke-dasharray: none; stroke-linecap: butt; stroke-dashoffset: 0; stroke-linejoin: miter; stroke-miterlimit: 4; fill: rgb(255,255,255); fill-opacity: 0; fill-rule: nonzero; opacity: 1;"  transform=" translate(0, 0)" d="M 0 -21.23735 L 0 21.237340000000003" stroke-linecap="round" />
</g>
		<g transform="matrix(0 1 3.3512843827 0 -168.9673801416 -98.1265900864)" id="9nTT1Z7S7zKK8mKQMZOtj"  >
<path style="stroke: rgb(212,122,95); stroke-width: 12; stroke-dasharray: none; stroke-linecap: butt; stroke-dashoffset: 0; stroke-linejoin: miter; stroke-miterlimit: 4; fill: rgb(255,255,255); fill-opacity: 0; fill-rule: nonzero; opacity: 1;"  transform=" translate(0, 0)" d="M 0 -21.23735 L 0 21.237340000000003" stroke-linecap="round" />
</g>
		<g transform="matrix(-0.0183147599 -1.0492518919 1.0492518919 -0.0183147599 -245.8637799137 -45.2163035102)" id="r4AIT7WojUdSdAFl2-Vvs"  >
<path style="stroke: rgb(212,122,95); stroke-width: 12; stroke-dasharray: none; stroke-linecap: butt; stroke-dashoffset: 0; stroke-linejoin: miter; stroke-miterlimit: 4; fill: rgb(255,255,255); fill-opacity: 0; fill-rule: nonzero; opacity: 1;"  transform=" translate(-0.000005, 0.0000013722)" d="M -52.29471 -11.69027 C 3.1383599999999987 -13.85 52.29471999999999 11.81929 52.29471999999999 11.81929" stroke-linecap="round" />
</g>
		<g transform="matrix(0 -0.8553733788 0.8556520757 0 -210.8537660327 -14.0088434016)" id="CYHvYmRasZHrdcD9xs96-"  >
<path style="stroke: rgb(212,122,95); stroke-width: 12; stroke-dasharray: none; stroke-linecap: butt; stroke-dashoffset: 0; stroke-linejoin: miter; stroke-miterlimit: 4; fill: rgb(255,255,255); fill-opacity: 0; fill-rule: nonzero; opacity: 1;"  transform=" translate(-0.000005, 6e-7)" d="M -26.37795 -2.96443 C -7.66029 -5.84407 26.37796 3.51476 26.37796 3.51476" stroke-linecap="round" />
</g>
		<g transform="matrix(0.7193398003 -0.6946583705 0.9020566766 0.9341070334 -170.1415459312 -164.9972449939)" id="KSLaqV5bothw61Fuyj-i8"  >
<path style="stroke: rgb(212,122,95); stroke-width: 12; stroke-dasharray: none; stroke-linecap: butt; stroke-dashoffset: 0; stroke-linejoin: miter; stroke-miterlimit: 4; fill: rgb(255,255,255); fill-opacity: 0; fill-rule: nonzero; opacity: 1;"  transform=" translate(0, 0)" d="M 0 -21.23735 L 0 21.237340000000003" stroke-linecap="round" />
</g>
		<g transform="matrix(0.8571673007 -0.5150380749 0.9590054148 1.5960530352 -102.9450628363 -145.0212937836)" id="UiFnNUJqvVwihG-UcCcNe"  >
<path style="stroke: rgb(212,122,95); stroke-width: 12; stroke-dasharray: none; stroke-linecap: butt; stroke-dashoffset: 0; stroke-linejoin: miter; stroke-miterlimit: 4; fill: rgb(255,255,255); fill-opacity: 0; fill-rule: nonzero; opacity: 1;"  transform=" translate(0, 0)" d="M 0 -21.23735 L 0 21.237340000000003" stroke-linecap="round" />
</g>
		<g transform="matrix(-0.7193398003 0.6946583705 2.3055557171 2.3874728352 -47.0186773717 -189.4558677402)" id="bnPyxaSTdW1LkxiKel0q2"  >
<path style="stroke: rgb(212,122,95); stroke-width: 12; stroke-dasharray: none; stroke-linecap: butt; stroke-dashoffset: 0; stroke-linejoin: miter; stroke-miterlimit: 4; fill: rgb(255,255,255); fill-opacity: 0; fill-rule: nonzero; opacity: 1;"  transform=" translate(0, 0)" d="M 0 -21.23735 L 0 21.237340000000003" stroke-linecap="round" />
</g>
		<g transform="matrix(0.7420461452 -0.7420461452 0.7420461452 0.7420461452 -139.107141457 -208.6489147966)" id="m2SNfHF39WLBgy_UdOfIt"  >
<path style="stroke: rgb(212,122,95); stroke-width: 12; stroke-dasharray: none; stroke-linecap: butt; stroke-dashoffset: 0; stroke-linejoin: miter; stroke-miterlimit: 4; fill: rgb(255,255,255); fill-opacity: 0; fill-rule: nonzero; opacity: 1;"  transform=" translate(-0.000005, 0.0000013722)" d="M -52.29471 -11.69027 C 3.1383599999999987 -13.85 52.29471999999999 11.81929 52.29471999999999 11.81929" stroke-linecap="round" />
</g>
		<g transform="matrix(0.6153041155 -0.5941922775 0.5943858766 0.6155045933 -137.2359103883 -161.7862950164)" id="oPfSzFhPUZk6s1R3Vq7kQ"  >
<path style="stroke: rgb(212,122,95); stroke-width: 12; stroke-dasharray: none; stroke-linecap: butt; stroke-dashoffset: 0; stroke-linejoin: miter; stroke-miterlimit: 4; fill: rgb(255,255,255); fill-opacity: 0; fill-rule: nonzero; opacity: 1;"  transform=" translate(-0.000005, 6e-7)" d="M -26.37795 -2.96443 C -7.66029 -5.84407 26.37796 3.51476 26.37796 3.51476" stroke-linecap="round" />
</g>
		<g transform="matrix(1.324650935 0.0926286168 -0.0697564737 0.9975640503 13.6782902138 -139.4222489431)" id="f13Qv-4Nu0a3Yg6nP378Y"  >
<path style="stroke: rgb(212,122,95); stroke-width: 12; stroke-dasharray: none; stroke-linecap: butt; stroke-dashoffset: 0; stroke-linejoin: miter; stroke-miterlimit: 4; fill: rgb(255,255,255); fill-opacity: 0; fill-rule: nonzero; opacity: 1;"  transform=" translate(0, 0)" d="M -11.6198 0.15998 C -0.8211499999999994 -0.55993 11.6198 0.15998 11.6198 0.15998" stroke-linecap="round" />
</g>
		<g transform="matrix(0.7748814099 0.9234677041 -0.7660444431 0.6427876097 109.2348620142 -89.6158880312)" id="CI0H7rt8Oe4jLyWxiQU8z"  >
<path style="stroke: rgb(212,122,95); stroke-width: 12; stroke-dasharray: none; stroke-linecap: butt; stroke-dashoffset: 0; stroke-linejoin: miter; stroke-miterlimit: 4; fill: rgb(255,255,255); fill-opacity: 0; fill-rule: nonzero; opacity: 1;"  transform=" translate(0, 0)" d="M -11.6198 0.15998 C -0.8211499999999994 -0.55993 11.6198 0.15998 11.6198 0.15998" stroke-linecap="round" />
</g>
		<g transform="matrix(-0.087957995 1.2578579312 -0.9975640503 -0.0697564737 141.4887135015 12.7694132972)" id="4lh-IcgKW6B7pKWd7JkP_"  >
<path style="stroke: rgb(212,122,95); stroke-width: 12; stroke-dasharray: none; stroke-linecap: butt; stroke-dashoffset: 0; stroke-linejoin: miter; stroke-miterlimit: 4; fill: rgb(255,255,255); fill-opacity: 0; fill-rule: nonzero; opacity: 1;"  transform=" translate(0, 0)" d="M -11.6198 0.15998 C -0.8211499999999994 -0.55993 11.6198 0.15998 11.6198 0.15998" stroke-linecap="round" />
</g>
		<g transform="matrix(-0.9098035101 0.7908801254 -0.656059029 -0.7547095802 93.4399258906 108.0037928559)" id="OmbHZa8C5H0An4fp_hqrD"  >
<path style="stroke: rgb(212,122,95); stroke-width: 12; stroke-dasharray: none; stroke-linecap: butt; stroke-dashoffset: 0; stroke-linejoin: miter; stroke-miterlimit: 4; fill: rgb(255,255,255); fill-opacity: 0; fill-rule: nonzero; opacity: 1;"  transform=" translate(0, 0)" d="M -11.6198 0.15998 C -0.8211499999999994 -0.55993 11.6198 0.15998 11.6198 0.15998" stroke-linecap="round" />
</g>
		<g transform="matrix(-0.8816479641 -0.8221500272 0.6819983601 -0.7313537016 -105.3627671931 96.719880952)" id="jjp_u7I1pDhUKJE8L8v84"  >
<path style="stroke: rgb(212,122,95); stroke-width: 12; stroke-dasharray: none; stroke-linecap: butt; stroke-dashoffset: 0; stroke-linejoin: miter; stroke-miterlimit: 4; fill: rgb(255,255,255); fill-opacity: 0; fill-rule: nonzero; opacity: 1;"  transform=" translate(0, 0)" d="M -11.6198 0.15998 C -0.8211499999999994 -0.55993 11.6198 0.15998 11.6198 0.15998" stroke-linecap="round" />
</g>
		<g transform="matrix(-1.3278855975 0 0 -1 -7.0062625279 142.7667618118)" id="GxLlVOVGxdTQ-Caesrqt0"  >
<path style="stroke: rgb(212,122,95); stroke-width: 12; stroke-dasharray: none; stroke-linecap: butt; stroke-dashoffset: 0; stroke-linejoin: miter; stroke-miterlimit: 4; fill: rgb(255,255,255); fill-opacity: 0; fill-rule: nonzero; opacity: 1;"  transform=" translate(0, 0)" d="M -11.6198 0.15998 C -0.8211499999999994 -0.55993 11.6198 0.15998 11.6198 0.15998" stroke-linecap="round" />
</g>
		<g transform="matrix(0.0258873677 -1.4830863043 0.9998476952 0.0174524064 -141.0012762453 -6.9889493992)" id="-KFT54AKY_PrzjVNb5xGv"  >
<path style="stroke: rgb(212,122,95); stroke-width: 12; stroke-dasharray: none; stroke-linecap: butt; stroke-dashoffset: 0; stroke-linejoin: miter; stroke-miterlimit: 4; fill: rgb(255,255,255); fill-opacity: 0; fill-rule: nonzero; opacity: 1;"  transform=" translate(0, 0)" d="M -11.6198 0.15998 C -0.8211499999999994 -0.55993 11.6198 0.15998 11.6198 0.15998" stroke-linecap="round" />
</g>
		<g transform="matrix(0.9256404034 -0.8631736405 0.6819983601 0.7313537016 -91.1309400876 -106.7580864477)" id="CytB7hsB3eoBXcz9fvq95"  >
<path style="stroke: rgb(212,122,95); stroke-width: 12; stroke-dasharray: none; stroke-linecap: butt; stroke-dashoffset: 0; stroke-linejoin: miter; stroke-miterlimit: 4; fill: rgb(255,255,255); fill-opacity: 0; fill-rule: nonzero; opacity: 1;"  transform=" translate(0, 0)" d="M -11.6198 0.15998 C -0.8211499999999994 -0.55993 11.6198 0.15998 11.6198 0.15998" stroke-linecap="round" />
</g>
</g>
</g>
</svg>